<?xml version="1.0" standalone="no"?>
<!DOCTYPE svg PUBLIC "-//W3C//DTD SVG 20010904//EN"
 "http://www.w3.org/TR/2001/REC-SVG-20010904/DTD/svg10.dtd">
<svg version="1.0" xmlns="http://www.w3.org/2000/svg"
 width="465.000000pt" height="627.000000pt" viewBox="0 0 465.000000 627.000000"
 preserveAspectRatio="xMidYMid meet">

<g transform="translate(0.000000,627.000000) scale(0.100000,-0.100000)"
fill="#000000" stroke="none">
<path d="M2225 6231 c-53 -26 -177 -146 -1087 -1057 -564 -566 -1033 -1042
-1041 -1059 -31 -64 -37 -152 -16 -226 9 -30 31 -61 69 -99 100 -99 -128 -90
2191 -90 2316 0 2092 -9 2189 89 63 64 83 112 81 204 -1 116 47 63 -1069 1180
-1128 1129 -1082 1087 -1201 1087 -41 0 -72 -8 -116 -29z"/>
<path d="M250 2542 c-61 -23 -152 -114 -168 -168 -21 -71 -15 -163 13 -220 33
-66 2068 -2101 2130 -2129 22 -11 67 -21 101 -23 127 -9 54 -74 1202 1072 825
824 1038 1041 1058 1082 53 109 26 245 -67 328 -92 83 105 76 -2183 75 -1884
0 -2044 -2 -2086 -17z"/>
</g>
</svg>
